<svg xmlns="http://www.w3.org/2000/svg" viewBox="0 0 120 120"><path d="M87 19c7-6 15-6 19-5-1 9-8 17-17 17" fill="#64734a"/><path d="M23 87C10 75 14 49 32 31 47 16 73 12 86 23c4 4 8 5 13 5-1 5 0 9 3 13 11 16 4 40-12 55-18 15-42 15-54 3-3-3-7-5-12-5 1-3 1-5-1-7Z" fill="#e4ee74" stroke="#28332a" stroke-width="3"/><path d="M31 68c-2-14 10-29 24-32" fill="none" stroke="#fffef1" stroke-width="6" stroke-linecap="round"/><path d="m62 85 2 1m13-8 2 1m-30 0 1 1" stroke="#a8b24f" stroke-width="2" stroke-linecap="round"/></svg>
